
<svg xmlns="http://www.w3.org/2000/svg" viewBox="0 0 32 32">
  <path fill="#ffc24a" d="M5.8 24.6l.17-.237 8.02-15.214.017-.161-3.535-6.64a.656.656 0 00-1.227.207z"/>
  <path fill="#ffa712" d="M5.9 24.42l.12-.292L14.1 8.756l-3.5-6.813a.655.655 0 00-1.211.206z"/>
  <path fill="#f4bd62" d="M16.584 14.01l2.637-2.7-2.637-5.03a.678.678 0 00-1.195 0l-1.407 2.687v.217z"/>
  <path fill="#ffa50e" d="M16.586 13.9l2.557-2.62-2.557-4.904a.655.655 0 00-1.169-.017l-1.426 2.704-.05.229z"/>
  <path fill="#f6820c" d="M5.798 24.598l.128-.141.077-.084 10.408-10.332L14.13 8.747z"/>
  <path fill="#fde068" d="M16.912 29.756l9.328-5.196.403-10.048-3.86-7.367c-.12-.216-.39-.324-.627-.22l-16.34 9.681z"/>
  <path fill="#fcca3f" d="M26.595 14.01l-3.75-7.158c-.12-.216-.383-.324-.616-.224L5.87 16.261l11.03 13.495z"/>
  <path fill="#eb8c00" d="M16.796 29.845a.647.647 0 01-.565-.12l-.096-.073-10.25-10.763 10.911 13.08a.69.69 0 00.072-.019l10.837-6.035z"/>
</svg>
