
<svg xmlns="http://www.w3.org/2000/svg" viewBox="0 0 32 32">
  <path fill="#599636" d="M15.9.087l.854 1.604c.192.296.4.558.645.802.715.715 1.394 1.464 2.004 2.266 1.447 1.9 2.423 4.01 3.12 6.292.418 1.394.645 2.824.662 4.27.07 4.323-1.412 8.035-4.4 11.12-.488.488-1.01.94-1.57 1.342-.296 0-.436-.227-.558-.436-.227-.383-.366-.802-.436-1.222-.105-.558-.122-1.133-.105-1.7.017-.296.052-.61.105-.906.17-.802.44-1.57.784-2.32l.383-.906c.296-.61.436-1.29.41-1.98-.087-1.133-.49-2.18-1.064-3.154-.296-.506-.653-.94-1.08-1.342-.14-.122-.27-.26-.367-.418-.435-.664-.453-1.394-.083-2.075.14-.296.314-.558.508-.802.18-.244.38-.47.574-.7.487-.767.905-1.6 1.215-2.5.14-.453.276-.906.35-1.377.035-.122.07-.227.087-.33.17-.664.17-1.342-.07-1.988-.09-.296-.21-.558-.367-.82-.28-.454-.682-.873-1.06-1.3l-.42-.505c-.4-.558-.73-1.133-1.01-1.76-.105-.244-.192-.505-.262-.75C17.56.348 17.35 0 16.985 0h-.035c-.348 0-.54.35-.642.7-.157.453-.35.872-.54 1.29-.44.9-.96 1.73-1.585 2.48-.245.296-.54.56-.784.82-.35-.087-.7-.183-1.05-.262-1.7-.53-3.433-.612-5.167-.35-.916.14-1.815.383-2.68.732-.154.07-.34.17-.4.297-.114.19 0 .366.132.505.28.244.61.435.956.61.753.36 1.437.803 2.115 1.277 1.275.906 2.356 2.075 3.25 3.433.48.732.838 1.5 1.118 2.32.157.435.28.872.366 1.325.192.767.314 1.552.314 2.338.035.976-.07 1.952-.33 2.893-.75 2.6-2.496 4.604-4.778 6.135-.663.45-1.373.84-2.115 1.133-.49.21-1 .4-1.528.52-.122 0-.227.07-.297.14-.14.14-.105.35 0 .505C.87 26.87 1.45 27 2.033 27.053c.98.083 1.96.035 2.923-.21.817-.192 1.6-.49 2.338-.854.206-.122.435-.244.645-.384.44 1.342.976 2.636 1.83 3.835.28.366.592.732.976 1.03.157.14.34.244.557.21.183-.018.34-.157.47-.28.435-.453.785-.994 1.118-1.53.42-.732.76-1.5 1.063-2.284.157-.398.297-.812.472-1.21.7.14.17.28.28.418.5.557 1.05 1.062 1.658 1.464.38.244.768.47 1.186.628.483.21 1 .33 1.53.366.817.07 1.634-.052 2.416-.366.447-.174.88-.384 1.274-.645.06-.052.15-.07.227-.14.17-.087.314-.35.244-.557-.053-.14-.157-.244-.28-.314-.313-.21-.645-.42-.976-.6-.896-.557-1.686-1.237-2.338-2.02-.348-.42-.645-.873-.89-1.343-.315-.663-.54-1.36-.662-2.08-.087-.53-.105-1.06-.07-1.6.07-1.083.4-2.11.92-3.05.385-.7.872-1.326 1.396-1.918z"/>
</svg>
